HIERARCHY
ROOT joint_0
{
	OFFSET 0.000000 0.000000 0.000000
	CHANNELS 6 Xposition Yposition Zposition Zrotation Yrotation Xrotation 
	JOINT joint_1
	{
		OFFSET 6.004005 -1.946999 100.587036
		CHANNELS 3 Zrotation Yrotation Xrotation
		JOINT joint_2
		{
			OFFSET -4.601006 -0.824997 91.925903
			CHANNELS 3 Zrotation Yrotation Xrotation
			JOINT joint_3
			{
				OFFSET -5.420998 -1.130005 91.774048
				CHANNELS 3 Zrotation Yrotation Xrotation
				JOINT joint_4
				{
					OFFSET 4.308998 -3.777992 123.473999
					CHANNELS 3 Zrotation Yrotation Xrotation
					JOINT joint_5
					{
						OFFSET 25.565002 -6.305008 79.437988
						CHANNELS 3 Zrotation Yrotation Xrotation
						End Site
						{
							OFFSET 0.000000 0.000000 0.000000
						}
					}
				}
				JOINT joint_6
				{
					OFFSET -1.750000 -28.655998 68.557983
					CHANNELS 3 Zrotation Yrotation Xrotation
					JOINT joint_7
					{
						OFFSET -17.692001 -116.544006 -17.244019
						CHANNELS 3 Zrotation Yrotation Xrotation
						JOINT joint_8
						{
							OFFSET 27.063004 -23.640991 -266.895020
							CHANNELS 3 Zrotation Yrotation Xrotation
							JOINT joint_9
							{
								OFFSET 40.722000 -15.761017 -232.488953
								CHANNELS 3 Zrotation Yrotation Xrotation
								End Site
								{
									OFFSET 0.000000 0.000000 0.000000
								}
							}
						}
					}
				}
				JOINT joint_10
				{
					OFFSET 6.593002 24.457001 69.892944
					CHANNELS 3 Zrotation Yrotation Xrotation
					JOINT joint_11
					{
						OFFSET 24.311996 114.920002 -19.872925
						CHANNELS 3 Zrotation Yrotation Xrotation
						JOINT joint_12
						{
							OFFSET 21.081001 15.319000 -268.037964
							CHANNELS 3 Zrotation Yrotation Xrotation
							JOINT joint_13
							{
								OFFSET 27.794006 -8.947001 -234.744080
								CHANNELS 3 Zrotation Yrotation Xrotation
								End Site
								{
									OFFSET 0.000000 0.000000 0.000000
								}
							}
						}
					}
				}
			}
		}
	}
	JOINT joint_14
	{
		OFFSET -6.627998 -80.520004 -98.790039
		CHANNELS 3 Zrotation Yrotation Xrotation
		JOINT joint_15
		{
			OFFSET -43.638000 -13.751999 -502.538971
			CHANNELS 3 Zrotation Yrotation Xrotation
			JOINT joint_16
			{
				OFFSET -39.532999 -9.912994 -398.071007
				CHANNELS 3 Zrotation Yrotation Xrotation
				JOINT joint_17
				{
					OFFSET 174.940004 -34.660995 -75.688002
					CHANNELS 3 Zrotation Yrotation Xrotation
					End Site
					{
						OFFSET 0.000000 0.000000 0.000000
					}
				}
			}
		}
	}
	JOINT joint_18
	{
		OFFSET 12.591003 79.842003 -98.765015
		CHANNELS 3 Zrotation Yrotation Xrotation
		JOINT joint_19
		{
			OFFSET -39.080002 -1.297001 -503.101013
			CHANNELS 3 Zrotation Yrotation Xrotation
			JOINT joint_20
			{
				OFFSET -51.570000 -0.514000 -396.815987
				CHANNELS 3 Zrotation Yrotation Xrotation
				JOINT joint_21
				{
					OFFSET 178.987999 -11.521999 -73.244003
					CHANNELS 3 Zrotation Yrotation Xrotation
					End Site
					{
						OFFSET 0.000000 0.000000 0.000000
					}
				}
			}
		}
	}
}
MOTION
Frames: 6
Frame Time: 0.016667
-1974.481323 1005.200256 1041.781006 8.677388 1.556644 2.544899 3.532177 4.077640 -3.086236 1.809314 -0.702993 0.600775 1.445497 0.696676 -0.499215 -0.669687 -5.945268 0.279635 0.000000 0.000000 0.000000 2.531122 3.011349 -2.807780 -2.850984 3.295434 0.750701 -1.596328 -21.333111 -9.361422 0.000000 0.000000 0.000000 0.986668 1.759264 4.096260 0.425191 1.453176 5.048022 0.073716 -9.030137 2.789909 0.000000 0.000000 0.000000 -0.322698 -11.566643 -6.155954 -3.829267 64.471467 5.342693 1.784188 18.341712 3.428143 0.000000 0.000000 0.000000 -2.714031 -30.881239 -6.833886 -0.536231 41.405960 1.316779 2.181602 -4.950870 0.516822 0.000000 0.000000 0.000000 
-1952.526978 1006.006042 1039.520996 7.719454 1.457340 2.820901 3.845544 5.354850 -3.249412 1.624613 -0.922469 0.632168 1.214365 0.931243 -0.509891 -0.676668 -6.198076 0.231586 0.000000 0.000000 0.000000 2.734471 2.347703 -2.895447 -2.722971 2.538922 1.457434 -1.652073 -21.404274 -9.902380 0.000000 0.000000 0.000000 0.749799 1.162088 3.816623 0.566368 0.749176 5.572636 0.155803 -8.831219 2.937942 0.000000 0.000000 0.000000 -0.256429 -15.032029 -7.150158 -3.551642 69.233133 5.587927 2.267691 16.740972 2.285172 0.000000 0.000000 0.000000 -2.763092 -30.174187 -7.017355 -0.138681 43.282292 1.519373 2.802862 -6.624248 0.641866 0.000000 0.000000 0.000000 
-1930.871094 1006.561829 1038.938965 6.422558 1.427152 2.843748 4.244673 6.597065 -3.071077 1.489712 -1.126822 0.613150 1.048167 1.144686 -0.492519 -0.634674 -6.285094 0.103242 0.000000 0.000000 0.000000 2.895802 1.618628 -3.089056 -2.470259 1.639262 2.400157 -1.712469 -20.768136 -10.611605 0.000000 0.000000 0.000000 0.644829 0.486222 3.554326 0.697385 -0.018284 5.960402 0.246521 -8.416008 3.097721 0.000000 0.000000 0.000000 -0.210751 -18.842025 -7.817233 -2.922370 73.156559 5.973319 3.459286 14.668655 1.512125 0.000000 0.000000 0.000000 -2.813749 -29.095033 -6.686782 0.306241 44.285288 1.470359 3.292180 -8.186887 0.722802 0.000000 0.000000 0.000000 
-1908.870972 1006.924683 1039.969971 5.320906 1.516538 2.814117 4.560309 7.580188 -2.851560 1.303566 -1.297141 0.607033 0.830711 1.289770 -0.455381 -0.589393 -6.268487 0.004354 0.000000 0.000000 0.000000 2.935278 0.939771 -3.237462 -2.156913 0.764826 3.340658 -1.741895 -19.748039 -11.194781 0.000000 0.000000 0.000000 0.596782 -0.135922 3.383245 0.797560 -0.680504 6.138890 0.326103 -7.999123 3.235638 0.000000 0.000000 0.000000 -0.454052 -22.651630 -8.148385 -2.250933 75.860481 6.269110 4.380283 12.362579 1.172130 0.000000 0.000000 0.000000 -2.844210 -27.797654 -6.371981 0.677851 44.577128 1.451742 3.671747 -9.425237 0.782915 0.000000 0.000000 0.000000 
-1886.016968 1007.183960 1042.824951 4.724494 1.856379 2.792597 4.579438 7.948434 -2.656143 1.059135 -1.386895 0.604287 0.566134 1.360504 -0.413850 -0.569816 -6.145947 0.019387 0.000000 0.000000 0.000000 2.736659 0.360664 -3.233533 -1.796910 -0.010804 4.107356 -1.700383 -18.373547 -11.419830 0.000000 0.000000 0.000000 0.565328 -0.605119 3.316311 0.860807 -1.114392 6.023694 0.393038 -7.684309 3.384429 0.000000 0.000000 0.000000 -1.039187 -26.240501 -8.150354 -1.709870 76.985133 6.499839 4.639890 9.802979 1.169443 0.000000 0.000000 0.000000 -2.844177 -26.437261 -6.298619 0.895320 44.141280 1.652698 3.953167 -10.166407 0.837674 0.000000 0.000000 0.000000 
-1862.564087 1007.309998 1047.525024 4.354345 2.439021 2.672535 4.335225 7.764707 -2.325291 0.848030 -1.404591 0.565636 0.361966 1.395019 -0.373162 -0.557916 -5.894457 0.096997 0.000000 0.000000 0.000000 2.332346 -0.174132 -3.097139 -1.396624 -0.747365 4.757450 -1.626114 -16.509223 -11.410197 0.000000 0.000000 0.000000 0.573156 -0.976425 3.291548 0.893488 -1.402188 5.666937 0.453906 -7.388056 3.556375 0.000000 0.000000 0.000000 -1.768255 -29.688879 -7.807074 -1.180868 76.575490 6.885391 4.732171 7.104803 1.431225 0.000000 0.000000 0.000000 -2.801336 -24.971506 -6.204008 1.023278 42.925156 1.966307 4.138474 -10.517403 0.879149 0.000000 0.000000 0.000000 
